<?xml version="1.0" encoding="UTF-8"?>
<svg id="Layer_1" xmlns="http://www.w3.org/2000/svg" version="1.1" viewBox="0 0 1280 720">
  <!-- Generator: Adobe Illustrator 30.1.0, SVG Export Plug-In . SVG Version: 2.1.1 Build 136)  -->
  <defs>
    <style>
      .st0 {
        fill: #f4e8c7;
      }
    </style>
  </defs>
  <path class="st0" d="M149.5,127.5c-17,0-34.3,2.2-50.7,7.5-5.3,1.7-10.9,3.4-14.3,8.8-3,4.7-14,21.3-14,26.4s1.9,2.2,3,2.2c5.7,0,31.9-13.8,64.9-14.4l-30,45.1c-7.9,2.8-30.2,8.6-30.2,21.1s4,10.5,8.5,13.8c-4.5,9-17.9,32.5-17.9,41.9s1.9,7.7,6.4,7.7,8.7-6.2,11.1-10.1c4.9-7.5,9.6-14.6,9.6-17.4s-1.9-3.4-3.6-3.9l7.7-14.6c60.3,7.7,109.2-24.5,109.2-70.3s-13-43.8-59.8-43.8ZM136.3,218.4c-6,.4-12.4,0-19.4-2.1l4.2-7.1c3-2.4,19-3.4,19-7.7s-7.7-1.1-14.7-1.1l19.8-31.2c2.8-4.5,4-7.3,4.1-13.1,8.7,0,44.1,2.6,46.2,15.7,2.1,13.5-22.2,44.3-59.2,46.6Z"/>
  <path class="st0" d="M347.4,252c1.7,13.7,9.7,21.4,14.6,21.8,2.3.2,16-11.4,31.5-26.2l.4.4-25.3,48.6c-1.5,2.8-5.1,9.5-5.1,12.9s1.7,14.2,5.7,14.2,8.3-8.4,10.2-10.7l56.8-71.1-1.5-7.9-41.9,42.3-.4-.4,27.9-47.3c2.6-4.5,7.7-13.3,7.7-18.9s-1.9-11.4-5.1-10.7c-3.6.6-15.7,15.5-35.1,35.9-7.9,8.4-17,17.6-27,18.9.2-4.5,1.3-8.8,3.6-12.5,6.2-5.6,27.5-27.9,27.5-36.1s-5.3-9.9-8.1-9.9c-4.8.2-32,22.9-36.2,46.5-8,6.3-18.4,16.7-26.2,16.7s-5.8-1.5-5.8-5.2c0-10.1,16.4-25.1,16.4-32s-1.9-7.1-5.5-8.8c1.7-.7,6.6-2.8,6.6-5.4s-3.6-10.5-12.3-10.3c-20,.6-62.5,23.5-69.3,47.9-7.9,7.4-18.6,15.9-26.7,15.9s-7.7-4.3-9.4-9.2c-.9-5.2-.4-11.2,1.3-14.8,40.9-45.1,45.8-64,47.2-84.5.2-2.8-.6-7.9-3.8-7.9-6,0-23.9,20-40.6,43.4-12.3,17.2-20.7,41.5-20.7,64s3,27.9,16.8,27.9,25.4-12.4,35.6-23.8c2.3,10.3,11.4,21.4,16.1,21.4s16.4-11.2,20-14.4l17.4-15.9.4.4c-2.5,5.8-7,17.2-7,24.1s2.8,11.4,9.1,11.4,30.4-19.3,40.3-30.6ZM249.4,169.6c-3.4,12.2-15.1,32.9-28.5,47.1l-.4-.4c8.9-22.1,19.6-41.5,28.9-46.6ZM268.3,261.4c-2.8.6-3.6-3.2-3.8-4.3,0-10.5,5.5-23.6,50.4-39.3l.4.4c-37.3,43-43.2,42.3-47,43.2Z"/>
  <path class="st0" d="M522.6,215.6c3.6,0,13-8.8,15.8-11.2,1.9-1.7,5.7-4.1,5.7-7.3s-.8-2.2-1.7-2.2c-2.1,0-5.1.9-7.2,1.3l-4.7,1.1c10.2-21.9,39.6-43.2,49.6-44.7,3.8,0,5.1,5.4,5.1,8.8,0,11-17.4,50.5-50.2,104-1.5,2.4-3.2,5.4-3.2,8.4,0,5.4,6.4,10.5,10.8,10.1,5.8-.4,16.8-15.7,13.6-24.7,14.3-23.6,45.6-79.1,45.6-106.8s-6-24.1-18.7-24.1c-29,0-74.9,38.5-77.5,71.3-.6,6,13.4,15.9,17,15.9Z"/>
  <path class="st0" d="M589.2,214.5c10-1.7,6.4-.9,17.9-.9-7,13.5-17.4,24.5-28.7,34.4l2.1,8.2,9.6-8.8.4.4c-2.5,6.2-4.9,14.4-4.9,21.5s4.5,14.4,11.9,14.4c16,0,36.4-23,47.5-34.6l-.9-9.5c-19.6,15.9-26.4,22.3-32.4,22.3s-5.7-2.8-5.7-7.5c0-12.9,10.8-30.5,17.2-40,20.7,1.5,22.2-6.5,31.1-26.9l-11.7-1.1c1.9-3,7.4-10.1,7.4-14s-3.6-4.1-6-4.1c-10.9,0-15.1,10.1-20.7,18.9-20.2.9-21.7,4.3-31.9,23.2l-2.1,3.9Z"/>
  <path class="st0" d="M700.8,289.5c6.8,0,14-9,18.5-14.2l38.7-43.8,41.1-1.5c-16.6,34.8-13.8,34.6-13.8,36.3,0,6.9,2.8,12.9,9.6,12.9,13.4,0,29.4-17.4,38.5-27.7l-3.4-5.6c-11.1,9.5-13.2,11.8-16.6,11.8s-3.4-1.3-3.4-3.4l11.9-26.4,15.1-.9c4.2-8.6,8.7-17.2,14.2-24.5-11.9-3-3.4-.9-17.4-.9l23.4-46.6c1.9-3.9,5.8-11.2,5.8-15.7s-2.6-9.2-6.6-9.2c-8.5,0-31.1,19.5-49.6,37l-42.2,40c-.8,0-8.5.4-11.5.6-.9,0-2.6-.4-2.6-1.9,0-3.9,13.8-1.9,13.8-5.8s-10.2-1.3-17.5,1.5c-10,3.7-23.8,21.7-23.8,25.8s6.2,4.7,18.3,4.3l-14.7,18.5c-17.7,7.1-32.2,27.7-32.2,34.8s3.8,4.7,6.6,4.7ZM838.3,153l.4.4-25.6,49-28.9,2.4-.4-.4,54.5-51.4Z"/>
  <path class="st0" d="M1072.9,198.8c8.1,0,15.1-10.5,15.1-19.1s-2.8-6.7-6.2-6.7c-7.4,0-16.4,7.7-16.4,16.5s3,9.2,7.5,9.2Z"/>
  <path class="st0" d="M1159.6,245.4c-3.4,3.2-11.7,10.7-16.2,10.7s-3.4-1.9-3.4-3.9c0-14.8,23.2-31.2,23.2-39.5-.6-4.5-1.7-8.4-2.8-11.6-1.1-3-2.3-4.1-3-4.1-5.5,0-40.2,26.4-55.3,48.3-.8,1.1-2.5,3-3.8,3s-2.1-1.1-2.1-2.4c0-5.2,23.8-26.9,23.8-35.2s.9-4.3-10.4-4.7c-3.2,0-4.9.2-7.4,2.6-8,7.7-16.5,21.3-20.2,33.9l-.3-1.4c-7.5,6.2-17.4,17.6-27.3,17.6s-11.5-4.7-10-13.5c7.9-6.2,26.6-25.4,26.6-36.1s-5.1-6-8.3-6c-9.3,0-27,17.4-32.9,38.3-8.1,6.3-18.7,17-26.5,17s-5.8-1.5-5.8-5.2c0-10.1,16.4-25.1,16.4-32s-1.9-7.1-5.5-8.8c1.7-.7,6.6-2.8,6.6-5.4s-3.6-10.5-12.3-10.3c-19.9.6-62.3,23.4-69.2,47.8l-22.2,18.2-.4-.4,14.2-30.1c1.3-2.8,4-7.7,4-11s-3.4-11-7.2-11-5.3,3.7-7.2,6l-20.2,25.4c-7.2,8.8-18.7,14-23.9,13.3-1.7,0-2.8-.4-3-2.2-1.7-15.7,12.3-21.7,24.1-29l21.5-13.3c2.5-1.9,6.2-4.9,6.2-8.8s-7.4-5.6-10-5.4c-14.5,1.5-55.6,24.3-55.6,52.4s3.6,25.1,14.1,25.1,30.2-19.5,37-28.2l.4.4-13.2,29.4c-10.4,8.6-39,35.7-39,51.1s1.7,5.2,4.3,5.2c7.4,0,23.9-13.8,43.8-49.6l31.9-27.2c2.1,10.5,11.4,22,16.2,22s16.4-11.2,20-14.4l17.4-15.9.4.4c-2.5,5.8-7,17.2-7,24.1s2.8,11.4,9.1,11.4,28.5-17.6,38.9-29.1c0,.5,0,.9,0,1.4,0,11,5.1,25.6,16.2,25.6s27-15,36-26.6c0,.6,0,1.3,0,1.9.2,7.3,2.3,20.9,10.6,20.9s12.1-10.5,14.9-14.6c8.5-12.5,18.1-23.6,29-32.9l.4.4c-6,9.9-16.2,24.1-16.2,37s3.4,14.2,10.6,14.2c13.8,0,33.2-26.4,43.2-36.5l-1.5-9.5-11.3,10.7ZM950.1,261.4c-2.8.6-3.6-3.2-3.8-4.3,0-10.5,5.5-23.6,50.4-39.3l.4.4c-37.3,43-43.2,42.3-47,43.2Z"/>
  <path class="st0" d="M1197.3,247.2c-8.1,0-17.3,12-17.3,20.8s3.8,6.2,7.2,7.5c-2.3,5.4-5.5,10.1-8.5,14.6,4.2,0,8.1,1.7,19.4-14.2,3.2-4.3,8.9-18.1,8.9-23.9s-6.6-4.9-9.6-4.9Z"/>
  <path class="st0" d="M539.5,385.3c-6.9,3.5-12.8,7.6-17.5,12.2-4.7,4.6-7.1,8.1-7.1,10.4s.7,1.6,2,1.6,3.8-1.5,8.2-4.4c4.4-3,9.7-6.1,15.9-9.3,6.2-3.2,13.5-6.3,21.9-9.3,7.9-3.1,13.4-5.5,16.5-7.4,3.1-1.8,6.1-5.5,8.8-11,2.7-5.5,4.1-13.3,4.1-23.4s-5.2-10.8-15.7-13.7c-10.5-3-25.4-4.4-44.6-4.4-32.2,0-61.2,4.2-86.9,12.5-25.7,8.3-43.5,18.1-53.4,29.2-6.2,6.7-11.2,16-15.1,27.9-3.9,11.9-5.9,23.8-5.9,35.6s1.1,6.6,3.4,10.1c2.3,3.5,4.4,5.8,6.4,6.9,23.4,13.6,48.6,22.4,75.6,26.4,9.1,1.5,17.8,3.7,26.2,6.8,8.4,3,15.9,7,22.5,12,6.7,5,11.7,10.5,15,16.7-9.6,8.1-20.3,14.4-32.1,18.9-11.8,4.6-25.3,7.7-40.7,9.5-15.4,1.8-35.1,2.6-59.1,2.6s-41.5-1.4-41.5-4.2.5-1.9,1.5-2.5c1-.6,2.3-1.2,4-1.8s3.8-1.4,6.5-2.5c.5-.3,1.1-.5,1.6-.8.5-.3,1-.6,1.4-1,.4-.4.6-.8.6-1.2,0-1.6-2.7-2.2-8-1.9-5.3.3-10.9,1.6-16.6,3.9-6.5,3-12.2,8.7-17,17.2-4.8,8.5-7.2,14.8-7.2,18.9,0,9,7.1,15.7,21.3,20.2,14.2,4.4,33,6.7,56.4,6.7s26-.8,40-2.5c14-1.7,26.9-4,38.9-7,12-3,21.9-6.1,29.8-9.5,9.2-4.2,17.4-9.5,24.4-15.9,7.1-6.5,12.5-13.5,16.1-21.3,3.7-7.7,5.5-15.4,5.5-23.1,0-11.2-4.7-21.2-14-30.2-9.4-9-23.7-17.7-43.1-26-13.5-5.9-28.8-11.2-45.9-15.7-17.1-4.6-28.2-7.8-33.2-9.8-5-1.9-7.5-5.3-7.5-10,0-7.5,6-14.9,18.1-22.2,12.1-7.3,28.6-13.1,49.6-17.5,21-4.4,43.8-6.7,68.5-6.7s12.2.9,12.2,2.6-3.7,3.6-11,7.5Z"/>
  <path class="st0" d="M932.5,532.3c-3.3,0-6.2-1.1-8.6-3.3-2.4-2.2-3.6-5.1-3.6-8.8,0-6.2,2.1-12.1,6.3-17.7,4.2-5.6,10.6-13.2,19-22.7,8.5-9.5,12.7-15.5,12.7-18,0-3.9-1.4-9.1-4.2-15.6s-5.8-9.7-8.8-9.6c-1.6,0-5.3,2.4-11,7.3-5.8,4.8-12.4,10.8-19.9,17.7-7.5,7-17.9,16.6-31.2,28.7-13.2,12.2-29.1,26.4-47.5,42.8,12.2-16.1,22.1-29.9,29.8-41.2,7.7-11.4,13.5-20.9,17.5-28.6,4-7.7,6-13.1,6-16,0-4.4-1.3-8.2-3.9-11.2-2.6-3-5.9-4.5-9.9-4.5-6.5,0-14.5,3.7-23.9,11-9.4,7.3-19.6,16.5-30.7,27.6-11,11.1-21.1,21.3-30.4,30.8-9.2,9.4-15,14.1-17.2,14.1s-4.2-1.8-4.2-5.5,1.8-6.7,5.4-12.4c3.6-5.7,7.4-10.5,11.4-14.4,7.5-6.8,13.7-13.5,18.5-20,4.9-6.4,7.3-11.1,7.3-13.9s-1.3-4.8-4-6.4c-2.7-1.5-5.9-2.3-9.8-2.3-6.3,0-12.3,2.8-17.9,8.4-5.7,5.6-13,14.9-21.9,27.9-5.7,9-10,16.5-12.7,22.6-1.4,3.1-2.5,6.6-3.2,10.4-17.8,15.3-31.1,22.9-39.8,22.9s-13.6-5-13.6-14.9,1.3-11.2,3.9-15.3c2.6-4.2,7.2-10.6,13.6-19.5,6.5-8.8,9.7-14.8,9.7-18s-.4-3.5-1.2-5.5c-.8-2.1-1.9-4.8-3.4-8.2-1.5-3.4-2.7-6.1-3.6-8.3,4.7-1.6,8-3,9.8-4.1,1.9-1.2,2.8-2.9,2.8-5.3s-.7-3.8-2.1-6.8c-1.4-3.1-3.3-5.8-5.7-8.2-2.4-2.3-5-3.5-7.8-3.5-10.4,0-25.2,4.5-44.3,13.5-19.1,9-38.8,22.8-59.1,41.3-7.6,7.3-13.2,13.1-16.6,17.5-3.5,4.4-5.8,8.8-7,13-1.2,4.2-1.8,9.5-1.8,15.8s1.7,17.2,5.1,25.3c3.4,8.1,7.3,14.8,11.7,19.9,4.4,5.1,8.1,7.7,11,7.7,6.2,0,14-4.6,23.5-13.8,9.5-9.2,24-24.7,43.5-46.5-7.6,20.2-11.4,35.5-11.4,46.2s1.1,11.8,3.3,15.2c2.2,3.4,5.9,5.1,11.1,5.1,13.8,0,36.4-17.1,67.6-51.2.3,10.2,2.4,19.2,6.1,27,4.1,8.6,8.6,12.9,13.4,12.9s4.8-1.3,7.2-4,6.4-8,11.9-16c5.5-8,10.5-14.5,14.9-19.5,15.9-17.7,26.6-29.4,32.2-35,5.5-5.6,9.8-8.4,12.7-8.4s4,1.3,4,4-.4,4-1.2,5c-9.6,16.1-17,29.4-22.2,39.8-5.2,10.4-7.8,17.6-7.8,21.7,0,9.9,3.5,14.9,10.4,14.9s13.4-4.2,20.9-12.5c3.9-4.4,9.2-10.5,15.8-18.2,6.7-7.7,15.3-16.8,25.9-27.1,10.5-10.3,22.6-21.1,36.3-32.2-4.5,7.5-9.6,15.8-15,24.9-5.5,9.1-9.9,16.8-13.2,23.3-3.3,6.5-5.8,12-7.4,16.7-1.6,4.7-2.4,9.3-2.4,13.9s1.4,8.6,4.2,11.8c2.8,3.2,6.3,4.7,10.4,4.7s10.5-2,17.5-6c7-4,15.3-9.9,24.8-17.9,9.5-8,20-17.5,31.7-28.5v-14.3c-11.6,10.4-20.1,17.5-25.6,21.6-5.4,4-10.1,6-13.9,6ZM655.1,501.7c-11.6,13.4-24.5,24.2-38.5,32.5-3.7,1.9-6.4,2.8-7.8,2.8-2.5,0-4.5-1.4-6-4.1-1.5-2.8-2.2-6.3-2.2-10.6,0-11.8,7.4-23.3,22.1-34.5,14.8-11.2,39.5-24.7,74.3-40.7-16.3,23-30.3,41.2-41.9,54.5Z"/>
  <path class="st0" d="M1029.3,308.1c0-7.3-2.7-10.9-8.2-10.9s-8.4,2.2-13.4,6.5-9.4,9.4-12.8,15.3c-3.5,5.9-5.2,11.1-5.2,15.5s2.7,8.3,8.2,8.3,1.6.4,1.6,1.2c0,1.6-1.7,4.5-5,8.7-2.7,3.6-4,6.4-4,8.3s.4,1.2,1.2,1.2c1.7,0,5.8-3.1,12.3-9.2,6.5-6.1,12.3-13.3,17.5-21.6,5.2-8.3,7.8-16,7.8-23.3Z"/>
  <path class="st0" d="M1098.4,534.2c-6.3,2.8-12.3,4.1-17.7,4.1s-6.6-.4-11.4-1.2c12-7.8,21.9-15.4,29.5-22.9,7.6-7.5,13.4-15.2,17.4-23.4,4-8.1,6-16.6,6-25.5s-.5-11.2-1.6-15.9c-1.1-4.7-2.6-10.5-4.5-17.4-1.9-6.9-2.9-11.7-2.9-14.2s.3-5.2.8-6.9l-1.2-3.8c-3.2-1.6-6.2-2.4-9-2.4-11.2,0-18.3,8.3-21.2,24.8-13,14.6-36.7,40.2-71.1,76.8v4.8c0,10.1.8,18.1,2.3,24,1.5,5.9,5.4,12.1,11.7,18.5,10.7,10.8,22.3,16.1,34.9,16.1s21.4-4.3,34.9-13c13.5-8.7,28.8-21.4,45.9-38.2v-13.5c-8.8,7.4-16.5,13.4-23.2,18-6.6,4.6-13.1,8.3-19.4,11.1ZM1058.2,529.2c-5.3-8.5-9.5-14.2-12.4-17.1-2.9-3-8.4-5.3-16.4-7.1,27.1-26.7,44.8-44.8,53.1-54.2l3.6,29.4c.1,1.1.2,2.2.3,3.2,0,1.1,0,2.3,0,3.6,0,11.3-2.4,20.2-7.3,26.7-4.9,6.5-11.9,11.7-20.9,15.4Z"/>
</svg>